<mxfile host="app.diagrams.net" modified="2024-04-01T03:00:14.894Z" agent="Mozilla/5.0 (Windows NT 10.0; Win64; x64) AppleWebKit/537.36 (KHTML, like Gecko) Chrome/125.0.0.0 Safari/537.36" version="24.2.1" etag="8iQM47NUcbrgbVeZEexp" type="github">
  <diagram name="第 1 页" id="bXjER_gotrRqN4IFYTnB">
    <mxGraphModel>
      <root>
        <mxCell id="0" />
        <mxCell id="1" parent="0" />
      </root>
    </mxGraphModel>
  </diagram>
</mxfile>
